<svg xmlns="http://www.w3.org/2000/svg" width="512" height="512" viewBox="0 0 512 512" role="img" aria-label="Album Filter icon">
  <defs>
    <linearGradient id="bg" x1="0" y1="0" x2="1" y2="1">
      <stop offset="0%" stop-color="#0f172a" />
      <stop offset="100%" stop-color="#1e293b" />
    </linearGradient>
    <linearGradient id="accent" x1="0" y1="0" x2="1" y2="1">
      <stop offset="0%" stop-color="#22d3ee" />
      <stop offset="100%" stop-color="#3b82f6" />
    </linearGradient>
    <filter id="shadow" x="-20%" y="-20%" width="140%" height="140%">
      <feDropShadow dx="0" dy="8" stdDeviation="10" flood-color="#020617" flood-opacity="0.35" />
    </filter>
  </defs>

  <rect x="24" y="24" width="464" height="464" rx="108" fill="url(#bg)" />

  <g filter="url(#shadow)">
    <rect x="86" y="120" width="340" height="230" rx="34" fill="#f8fafc" />
    <rect x="108" y="142" width="296" height="186" rx="18" fill="#e2e8f0" />
    <circle cx="166" cy="194" r="24" fill="#94a3b8" />
    <path d="M118 304l76-78 64 58 58-48 88 68H118z" fill="#94a3b8" />
  </g>

  <g filter="url(#shadow)">
    <circle cx="352" cy="352" r="84" fill="url(#accent)" />
    <path d="M308 320h88l-34 44v28h-20v-28l-34-44z" fill="#ecfeff" />
  </g>

  <rect x="24" y="24" width="464" height="464" rx="108" fill="none" stroke="#334155" stroke-width="4" />
</svg>
